<svg width="191" height="13" viewBox="0 0 191 13" fill="none" xmlns="http://www.w3.org/2000/svg">
<rect width="191" height="13" fill="#F5F5F5"/>
<g id="Product ads" clip-path="url(#clip0_0_1)">
<rect width="1440" height="4360" transform="translate(-95 -312)" fill="white"/>
<rect id="Rectangle 5" x="-95" y="-312" width="1440" height="842" fill="#D4FCF9"/>
<g id="Best home health-care service platform in Vietnam">
<path d="M29.235 -46.39H47.88C51.07 -46.39 53.545 -45.4917 55.305 -43.695C57.1017 -41.8983 58 -39.515 58 -36.545C58 -35.0783 57.7983 -33.8317 57.395 -32.805C57.0283 -31.7783 56.515 -30.935 55.855 -30.275C55.2317 -29.615 54.48 -29.12 53.6 -28.79C52.7567 -28.4967 51.84 -28.3317 50.85 -28.295V-27.965C51.7667 -27.965 52.72 -27.8 53.71 -27.47C54.7367 -27.14 55.6717 -26.6083 56.515 -25.875C57.3583 -25.1783 58.055 -24.2617 58.605 -23.125C59.1917 -21.9883 59.485 -20.595 59.485 -18.945C59.485 -17.4417 59.2283 -16.0117 58.715 -14.655C58.2383 -13.335 57.56 -12.18 56.68 -11.19C55.8 -10.2 54.755 -9.41167 53.545 -8.825C52.335 -8.275 51.015 -8 49.585 -8H29.235V-46.39ZM37.595 -15.04H47.22C48.32 -15.04 49.1817 -15.3333 49.805 -15.92C50.465 -16.5433 50.795 -17.405 50.795 -18.505V-20.375C50.795 -21.475 50.465 -22.3183 49.805 -22.905C49.1817 -23.5283 48.32 -23.84 47.22 -23.84H37.595V-15.04ZM37.595 -30.66H45.9C47 -30.66 47.8617 -30.9717 48.485 -31.595C49.1083 -32.2183 49.42 -33.08 49.42 -34.18V-35.83C49.42 -36.93 49.1083 -37.7917 48.485 -38.415C47.8617 -39.0383 47 -39.35 45.9 -39.35H37.595V-30.66ZM77.5246 -7.34C75.3246 -7.34 73.3629 -7.68833 71.6396 -8.385C69.9162 -9.11833 68.4496 -10.1267 67.2396 -11.41C66.0662 -12.73 65.1679 -14.325 64.5446 -16.195C63.9579 -18.065 63.6646 -20.155 63.6646 -22.465C63.6646 -24.7383 63.9579 -26.7917 64.5446 -28.625C65.1312 -30.495 65.9929 -32.09 67.1296 -33.41C68.3029 -34.73 69.7329 -35.7383 71.4196 -36.435C73.1062 -37.1683 75.0312 -37.535 77.1946 -37.535C79.5779 -37.535 81.6129 -37.1317 83.2996 -36.325C85.0229 -35.5183 86.4162 -34.4367 87.4796 -33.08C88.5796 -31.7233 89.3679 -30.1467 89.8446 -28.35C90.3579 -26.59 90.6146 -24.7383 90.6146 -22.795V-20.375H72.0796V-19.935C72.0796 -18.0283 72.5929 -16.5067 73.6196 -15.37C74.6462 -14.27 76.2596 -13.72 78.4596 -13.72C80.1462 -13.72 81.5212 -14.05 82.5846 -14.71C83.6479 -15.4067 84.6379 -16.2317 85.5546 -17.185L89.6246 -12.125C88.3412 -10.6217 86.6546 -9.44833 84.5646 -8.605C82.5112 -7.76167 80.1646 -7.34 77.5246 -7.34ZM77.3596 -31.54C75.7096 -31.54 74.4079 -30.99 73.4546 -29.89C72.5379 -28.8267 72.0796 -27.3967 72.0796 -25.6V-25.16H82.1996V-25.655C82.1996 -27.415 81.7962 -28.8267 80.9896 -29.89C80.2196 -30.99 79.0096 -31.54 77.3596 -31.54ZM106.153 -7.34C103.367 -7.34 101.02 -7.78 99.1134 -8.66C97.2067 -9.57667 95.5017 -10.86 93.9984 -12.51L98.7834 -17.35C99.81 -16.2133 100.947 -15.315 102.193 -14.655C103.44 -13.995 104.852 -13.665 106.428 -13.665C108.042 -13.665 109.16 -13.9033 109.783 -14.38C110.407 -14.8933 110.718 -15.5717 110.718 -16.415C110.718 -17.7717 109.747 -18.5783 107.803 -18.835L104.668 -19.22C98.1784 -20.0267 94.9334 -22.9967 94.9334 -28.13C94.9334 -29.5233 95.19 -30.7883 95.7034 -31.925C96.2534 -33.0983 97.005 -34.0883 97.9584 -34.895C98.9484 -35.7383 100.122 -36.38 101.478 -36.82C102.872 -37.2967 104.43 -37.535 106.153 -37.535C107.657 -37.535 108.977 -37.425 110.113 -37.205C111.287 -37.0217 112.313 -36.7283 113.193 -36.325C114.11 -35.9583 114.935 -35.4817 115.668 -34.895C116.438 -34.345 117.19 -33.7217 117.923 -33.025L113.248 -28.24C112.332 -29.1567 111.287 -29.8717 110.113 -30.385C108.977 -30.935 107.803 -31.21 106.593 -31.21C105.2 -31.21 104.21 -30.99 103.623 -30.55C103.037 -30.11 102.743 -29.5233 102.743 -28.79C102.743 -28.02 102.945 -27.415 103.348 -26.975C103.788 -26.5717 104.595 -26.2783 105.768 -26.095L109.013 -25.655C115.357 -24.8117 118.528 -21.915 118.528 -16.965C118.528 -15.5717 118.235 -14.2883 117.648 -13.115C117.062 -11.9417 116.218 -10.915 115.118 -10.035C114.055 -9.19167 112.753 -8.53167 111.213 -8.055C109.71 -7.57833 108.023 -7.34 106.153 -7.34ZM133.769 -8C130.945 -8 128.8 -8.715 127.334 -10.145C125.904 -11.575 125.189 -13.665 125.189 -16.415V-30.55H121.119V-36.875H123.154C124.254 -36.875 125.005 -37.1317 125.409 -37.645C125.812 -38.195 126.014 -38.965 126.014 -39.955V-44.685H133.329V-36.875H139.049V-30.55H133.329V-14.325H138.609V-8H133.769ZM227.364 35.125H235.504V39.965H235.779C236.183 38.3517 237.099 37.0317 238.529 36.005C239.996 34.9783 241.664 34.465 243.534 34.465C247.201 34.465 249.969 35.7483 251.839 38.315C253.709 40.8817 254.644 44.6217 254.644 49.535C254.644 54.4483 253.709 58.2067 251.839 60.81C249.969 63.3767 247.201 64.66 243.534 64.66C242.581 64.66 241.683 64.5133 240.839 64.22C239.996 63.9633 239.226 63.5967 238.529 63.12C237.869 62.6067 237.301 62.02 236.824 61.36C236.348 60.6633 235.999 59.93 235.779 59.16H235.504V75H227.364V35.125ZM240.839 58.06C242.379 58.06 243.644 57.5283 244.634 56.465C245.661 55.365 246.174 53.8983 246.174 52.065V47.06C246.174 45.2267 245.661 43.7783 244.634 42.715C243.644 41.615 242.379 41.065 240.839 41.065C239.299 41.065 238.016 41.45 236.989 42.22C235.999 42.9533 235.504 43.98 235.504 45.3V53.825C235.504 55.145 235.999 56.19 236.989 56.96C238.016 57.6933 239.299 58.06 240.839 58.06ZM268.911 64C266.125 64 264.071 63.3217 262.751 61.965C261.468 60.6083 260.826 58.6467 260.826 56.08V23.3H268.966V57.675H272.596V64H268.911ZM298.817 64C297.35 64 296.122 63.5417 295.132 62.625C294.178 61.7083 293.573 60.48 293.317 58.94H292.987C292.547 60.81 291.575 62.24 290.072 63.23C288.568 64.1833 286.717 64.66 284.517 64.66C281.62 64.66 279.402 63.89 277.862 62.35C276.322 60.81 275.552 58.775 275.552 56.245C275.552 53.2017 276.652 50.9467 278.852 49.48C281.088 47.9767 284.113 47.225 287.927 47.225H292.492V45.41C292.492 44.0167 292.125 42.9167 291.392 42.11C290.658 41.2667 289.43 40.845 287.707 40.845C286.093 40.845 284.81 41.1933 283.857 41.89C282.903 42.5867 282.115 43.375 281.492 44.255L276.652 39.965C277.825 38.2417 279.292 36.9033 281.052 35.95C282.848 34.96 285.268 34.465 288.312 34.465C292.418 34.465 295.498 35.3633 297.552 37.16C299.605 38.9567 300.632 41.5783 300.632 45.025V57.675H303.327V64H298.817ZM287.542 58.995C288.898 58.995 290.053 58.7017 291.007 58.115C291.997 57.5283 292.492 56.575 292.492 55.255V51.845H288.532C285.342 51.845 283.747 52.9267 283.747 55.09V55.915C283.747 56.9783 284.077 57.7667 284.737 58.28C285.397 58.7567 286.332 58.995 287.542 58.995ZM318.588 64C315.765 64 313.62 63.285 312.153 61.855C310.723 60.425 310.008 58.335 310.008 55.585V41.45H305.938V35.125H307.973C309.073 35.125 309.825 34.8683 310.228 34.355C310.631 33.805 310.833 33.035 310.833 32.045V27.315H318.148V35.125H323.868V41.45H318.148V57.675H323.428V64H318.588ZM330.953 41.45H326.883V35.125H330.953V31.715C330.953 28.9283 331.686 26.8383 333.153 25.445C334.619 24.015 336.764 23.3 339.588 23.3H344.868V29.625H339.093V35.125H344.868V41.45H339.093V64H330.953V41.45ZM360.896 64.66C358.769 64.66 356.862 64.3117 355.176 63.615C353.526 62.9183 352.114 61.91 350.941 60.59C349.804 59.27 348.924 57.675 348.301 55.805C347.677 53.935 347.366 51.845 347.366 49.535C347.366 47.225 347.677 45.135 348.301 43.265C348.924 41.395 349.804 39.8183 350.941 38.535C352.114 37.215 353.526 36.2067 355.176 35.51C356.862 34.8133 358.769 34.465 360.896 34.465C363.022 34.465 364.911 34.8133 366.561 35.51C368.247 36.2067 369.659 37.215 370.796 38.535C371.969 39.8183 372.867 41.395 373.491 43.265C374.114 45.135 374.426 47.225 374.426 49.535C374.426 51.845 374.114 53.935 373.491 55.805C372.867 57.675 371.969 59.27 370.796 60.59C369.659 61.91 368.247 62.9183 366.561 63.615C364.911 64.3117 363.022 64.66 360.896 64.66ZM360.896 58.225C362.509 58.225 363.756 57.73 364.636 56.74C365.516 55.75 365.956 54.3383 365.956 52.505V46.62C365.956 44.7867 365.516 43.375 364.636 42.385C363.756 41.395 362.509 40.9 360.896 40.9C359.282 40.9 358.036 41.395 357.156 42.385C356.276 43.375 355.836 44.7867 355.836 46.62V52.505C355.836 54.3383 356.276 55.75 357.156 56.74C358.036 57.73 359.282 58.225 360.896 58.225ZM380.226 64V35.125H388.366V41.395H388.641C388.787 40.5883 389.044 39.8183 389.411 39.085C389.777 38.315 390.254 37.6367 390.841 37.05C391.464 36.4633 392.197 36.005 393.041 35.675C393.884 35.3083 394.874 35.125 396.011 35.125H397.441V42.715H395.406C393.022 42.715 391.244 43.0267 390.071 43.65C388.934 44.2733 388.366 45.4283 388.366 47.115V64H380.226ZM402.462 64V35.125H410.602V40.02H410.932C411.445 38.48 412.325 37.1783 413.572 36.115C414.819 35.015 416.524 34.465 418.687 34.465C420.667 34.465 422.354 34.96 423.747 35.95C425.14 36.94 426.149 38.3883 426.772 40.295H426.937C427.194 39.4883 427.579 38.7367 428.092 38.04C428.642 37.3067 429.302 36.6833 430.072 36.17C430.842 35.6567 431.704 35.2533 432.657 34.96C433.61 34.63 434.637 34.465 435.737 34.465C438.524 34.465 440.65 35.455 442.117 37.435C443.62 39.415 444.372 42.2383 444.372 45.905V64H436.232V46.565C436.232 42.8983 434.912 41.065 432.272 41.065C431.062 41.065 429.962 41.4133 428.972 42.11C427.982 42.8067 427.487 43.87 427.487 45.3V64H419.347V46.565C419.347 42.8983 418.027 41.065 415.387 41.065C414.8 41.065 414.214 41.1567 413.627 41.34C413.077 41.4867 412.564 41.7433 412.087 42.11C411.647 42.4767 411.28 42.935 410.987 43.485C410.73 43.9983 410.602 44.6033 410.602 45.3V64H402.462Z" fill="#E86363"/>
<path d="M157.701 -48.7H165.841V-31.98H166.171C166.685 -33.4833 167.583 -34.785 168.866 -35.885C170.15 -36.985 171.928 -37.535 174.201 -37.535C177.171 -37.535 179.408 -36.545 180.911 -34.565C182.451 -32.585 183.221 -29.7617 183.221 -26.095V-8H175.081V-25.435C175.081 -27.305 174.788 -28.68 174.201 -29.56C173.615 -30.4767 172.57 -30.935 171.066 -30.935C170.406 -30.935 169.765 -30.8433 169.141 -30.66C168.518 -30.5133 167.95 -30.2567 167.436 -29.89C166.96 -29.5233 166.575 -29.065 166.281 -28.515C165.988 -28.0017 165.841 -27.3967 165.841 -26.7V-8H157.701V-48.7ZM202.18 -7.34C200.053 -7.34 198.147 -7.68833 196.46 -8.385C194.81 -9.08167 193.398 -10.09 192.225 -11.41C191.088 -12.73 190.208 -14.325 189.585 -16.195C188.962 -18.065 188.65 -20.155 188.65 -22.465C188.65 -24.775 188.962 -26.865 189.585 -28.735C190.208 -30.605 191.088 -32.1817 192.225 -33.465C193.398 -34.785 194.81 -35.7933 196.46 -36.49C198.147 -37.1867 200.053 -37.535 202.18 -37.535C204.307 -37.535 206.195 -37.1867 207.845 -36.49C209.532 -35.7933 210.943 -34.785 212.08 -33.465C213.253 -32.1817 214.152 -30.605 214.775 -28.735C215.398 -26.865 215.71 -24.775 215.71 -22.465C215.71 -20.155 215.398 -18.065 214.775 -16.195C214.152 -14.325 213.253 -12.73 212.08 -11.41C210.943 -10.09 209.532 -9.08167 207.845 -8.385C206.195 -7.68833 204.307 -7.34 202.18 -7.34ZM202.18 -13.775C203.793 -13.775 205.04 -14.27 205.92 -15.26C206.8 -16.25 207.24 -17.6617 207.24 -19.495V-25.38C207.24 -27.2133 206.8 -28.625 205.92 -29.615C205.04 -30.605 203.793 -31.1 202.18 -31.1C200.567 -31.1 199.32 -30.605 198.44 -29.615C197.56 -28.625 197.12 -27.2133 197.12 -25.38V-19.495C197.12 -17.6617 197.56 -16.25 198.44 -15.26C199.32 -14.27 200.567 -13.775 202.18 -13.775ZM221.51 -8V-36.875H229.65V-31.98H229.98C230.493 -33.52 231.373 -34.8217 232.62 -35.885C233.867 -36.985 235.572 -37.535 237.735 -37.535C239.715 -37.535 241.402 -37.04 242.795 -36.05C244.188 -35.06 245.197 -33.6117 245.82 -31.705H245.985C246.242 -32.5117 246.627 -33.2633 247.14 -33.96C247.69 -34.6933 248.35 -35.3167 249.12 -35.83C249.89 -36.3433 250.752 -36.7467 251.705 -37.04C252.658 -37.37 253.685 -37.535 254.785 -37.535C257.572 -37.535 259.698 -36.545 261.165 -34.565C262.668 -32.585 263.42 -29.7617 263.42 -26.095V-8H255.28V-25.435C255.28 -29.1017 253.96 -30.935 251.32 -30.935C250.11 -30.935 249.01 -30.5867 248.02 -29.89C247.03 -29.1933 246.535 -28.13 246.535 -26.7V-8H238.395V-25.435C238.395 -29.1017 237.075 -30.935 234.435 -30.935C233.848 -30.935 233.262 -30.8433 232.675 -30.66C232.125 -30.5133 231.612 -30.2567 231.135 -29.89C230.695 -29.5233 230.328 -29.065 230.035 -28.515C229.778 -28.0017 229.65 -27.3967 229.65 -26.7V-8H221.51ZM282.7 -7.34C280.5 -7.34 278.539 -7.68833 276.815 -8.385C275.092 -9.11833 273.625 -10.1267 272.415 -11.41C271.242 -12.73 270.344 -14.325 269.72 -16.195C269.134 -18.065 268.84 -20.155 268.84 -22.465C268.84 -24.7383 269.134 -26.7917 269.72 -28.625C270.307 -30.495 271.169 -32.09 272.305 -33.41C273.479 -34.73 274.909 -35.7383 276.595 -36.435C278.282 -37.1683 280.207 -37.535 282.37 -37.535C284.754 -37.535 286.789 -37.1317 288.475 -36.325C290.199 -35.5183 291.592 -34.4367 292.655 -33.08C293.755 -31.7233 294.544 -30.1467 295.02 -28.35C295.534 -26.59 295.79 -24.7383 295.79 -22.795V-20.375H277.255V-19.935C277.255 -18.0283 277.769 -16.5067 278.795 -15.37C279.822 -14.27 281.435 -13.72 283.635 -13.72C285.322 -13.72 286.697 -14.05 287.76 -14.71C288.824 -15.4067 289.814 -16.2317 290.73 -17.185L294.8 -12.125C293.517 -10.6217 291.83 -9.44833 289.74 -8.605C287.687 -7.76167 285.34 -7.34 282.7 -7.34ZM282.535 -31.54C280.885 -31.54 279.584 -30.99 278.63 -29.89C277.714 -28.8267 277.255 -27.3967 277.255 -25.6V-25.16H287.375V-25.655C287.375 -27.415 286.972 -28.8267 286.165 -29.89C285.395 -30.99 284.185 -31.54 282.535 -31.54ZM314.537 -48.7H322.677V-31.98H323.007C323.521 -33.4833 324.419 -34.785 325.702 -35.885C326.986 -36.985 328.764 -37.535 331.037 -37.535C334.007 -37.535 336.244 -36.545 337.747 -34.565C339.287 -32.585 340.057 -29.7617 340.057 -26.095V-8H331.917V-25.435C331.917 -27.305 331.624 -28.68 331.037 -29.56C330.451 -30.4767 329.406 -30.935 327.902 -30.935C327.242 -30.935 326.601 -30.8433 325.977 -30.66C325.354 -30.5133 324.786 -30.2567 324.272 -29.89C323.796 -29.5233 323.411 -29.065 323.117 -28.515C322.824 -28.0017 322.677 -27.3967 322.677 -26.7V-8H314.537V-48.7ZM359.346 -7.34C357.146 -7.34 355.184 -7.68833 353.461 -8.385C351.738 -9.11833 350.271 -10.1267 349.061 -11.41C347.888 -12.73 346.989 -14.325 346.366 -16.195C345.779 -18.065 345.486 -20.155 345.486 -22.465C345.486 -24.7383 345.779 -26.7917 346.366 -28.625C346.953 -30.495 347.814 -32.09 348.951 -33.41C350.124 -34.73 351.554 -35.7383 353.241 -36.435C354.928 -37.1683 356.853 -37.535 359.016 -37.535C361.399 -37.535 363.434 -37.1317 365.121 -36.325C366.844 -35.5183 368.238 -34.4367 369.301 -33.08C370.401 -31.7233 371.189 -30.1467 371.666 -28.35C372.179 -26.59 372.436 -24.7383 372.436 -22.795V-20.375H353.901V-19.935C353.901 -18.0283 354.414 -16.5067 355.441 -15.37C356.468 -14.27 358.081 -13.72 360.281 -13.72C361.968 -13.72 363.343 -14.05 364.406 -14.71C365.469 -15.4067 366.459 -16.2317 367.376 -17.185L371.446 -12.125C370.163 -10.6217 368.476 -9.44833 366.386 -8.605C364.333 -7.76167 361.986 -7.34 359.346 -7.34ZM359.181 -31.54C357.531 -31.54 356.229 -30.99 355.276 -29.89C354.359 -28.8267 353.901 -27.3967 353.901 -25.6V-25.16H364.021V-25.655C364.021 -27.415 363.618 -28.8267 362.811 -29.89C362.041 -30.99 360.831 -31.54 359.181 -31.54ZM399.525 -8C398.058 -8 396.83 -8.45833 395.84 -9.375C394.886 -10.2917 394.281 -11.52 394.025 -13.06H393.695C393.255 -11.19 392.283 -9.76 390.78 -8.77C389.276 -7.81667 387.425 -7.34 385.225 -7.34C382.328 -7.34 380.11 -8.11 378.57 -9.65C377.03 -11.19 376.26 -13.225 376.26 -15.755C376.26 -18.7983 377.36 -21.0533 379.56 -22.52C381.796 -24.0233 384.821 -24.775 388.635 -24.775H393.2V-26.59C393.2 -27.9833 392.833 -29.0833 392.1 -29.89C391.366 -30.7333 390.138 -31.155 388.415 -31.155C386.801 -31.155 385.518 -30.8067 384.565 -30.11C383.611 -29.4133 382.823 -28.625 382.2 -27.745L377.36 -32.035C378.533 -33.7583 380 -35.0967 381.76 -36.05C383.556 -37.04 385.976 -37.535 389.02 -37.535C393.126 -37.535 396.206 -36.6367 398.26 -34.84C400.313 -33.0433 401.34 -30.4217 401.34 -26.975V-14.325H404.035V-8H399.525ZM388.25 -13.005C389.606 -13.005 390.761 -13.2983 391.715 -13.885C392.705 -14.4717 393.2 -15.425 393.2 -16.745V-20.155H389.24C386.05 -20.155 384.455 -19.0733 384.455 -16.91V-16.085C384.455 -15.0217 384.785 -14.2333 385.445 -13.72C386.105 -13.2433 387.04 -13.005 388.25 -13.005ZM417.583 -8C414.796 -8 412.743 -8.67833 411.423 -10.035C410.14 -11.3917 409.498 -13.3533 409.498 -15.92V-48.7H417.638V-14.325H421.268V-8H417.583ZM436 -8C433.177 -8 431.032 -8.715 429.565 -10.145C428.135 -11.575 427.42 -13.665 427.42 -16.415V-30.55H423.35V-36.875H425.385C426.485 -36.875 427.237 -37.1317 427.64 -37.645C428.043 -38.195 428.245 -38.965 428.245 -39.955V-44.685H435.56V-36.875H441.28V-30.55H435.56V-14.325H440.84V-8H436ZM446.935 -48.7H455.075V-31.98H455.405C455.918 -33.4833 456.816 -34.785 458.1 -35.885C459.383 -36.985 461.161 -37.535 463.435 -37.535C466.405 -37.535 468.641 -36.545 470.145 -34.565C471.685 -32.585 472.455 -29.7617 472.455 -26.095V-8H464.315V-25.435C464.315 -27.305 464.021 -28.68 463.435 -29.56C462.848 -30.4767 461.803 -30.935 460.3 -30.935C459.64 -30.935 458.998 -30.8433 458.375 -30.66C457.751 -30.5133 457.183 -30.2567 456.67 -29.89C456.193 -29.5233 455.808 -29.065 455.515 -28.515C455.221 -28.0017 455.075 -27.3967 455.075 -26.7V-8H446.935V-48.7ZM478.818 -20.815V-28.735H495.153V-20.815H478.818ZM514.078 -7.34C511.915 -7.34 509.99 -7.68833 508.303 -8.385C506.616 -9.11833 505.205 -10.1267 504.068 -11.41C502.931 -12.73 502.07 -14.325 501.483 -16.195C500.896 -18.065 500.603 -20.155 500.603 -22.465C500.603 -24.775 500.896 -26.8467 501.483 -28.68C502.07 -30.55 502.931 -32.145 504.068 -33.465C505.205 -34.785 506.616 -35.7933 508.303 -36.49C509.99 -37.1867 511.915 -37.535 514.078 -37.535C517.011 -37.535 519.45 -36.875 521.393 -35.555C523.373 -34.235 524.785 -32.3833 525.628 -30L519.028 -27.14C518.771 -28.24 518.24 -29.175 517.433 -29.945C516.626 -30.715 515.508 -31.1 514.078 -31.1C512.428 -31.1 511.181 -30.55 510.338 -29.45C509.495 -28.3867 509.073 -26.9383 509.073 -25.105V-19.715C509.073 -17.8817 509.495 -16.4333 510.338 -15.37C511.181 -14.3067 512.428 -13.775 514.078 -13.775C515.545 -13.775 516.7 -14.16 517.543 -14.93C518.423 -15.7367 519.065 -16.7817 519.468 -18.065L525.793 -15.315C524.84 -12.565 523.355 -10.5483 521.338 -9.265C519.358 -7.98167 516.938 -7.34 514.078 -7.34ZM552.171 -8C550.704 -8 549.476 -8.45833 548.486 -9.375C547.533 -10.2917 546.928 -11.52 546.671 -13.06H546.341C545.901 -11.19 544.929 -9.76 543.426 -8.77C541.923 -7.81667 540.071 -7.34 537.871 -7.34C534.974 -7.34 532.756 -8.11 531.216 -9.65C529.676 -11.19 528.906 -13.225 528.906 -15.755C528.906 -18.7983 530.006 -21.0533 532.206 -22.52C534.443 -24.0233 537.468 -24.775 541.281 -24.775H545.846V-26.59C545.846 -27.9833 545.479 -29.0833 544.746 -29.89C544.013 -30.7333 542.784 -31.155 541.061 -31.155C539.448 -31.155 538.164 -30.8067 537.211 -30.11C536.258 -29.4133 535.469 -28.625 534.846 -27.745L530.006 -32.035C531.179 -33.7583 532.646 -35.0967 534.406 -36.05C536.203 -37.04 538.623 -37.535 541.666 -37.535C545.773 -37.535 548.853 -36.6367 550.906 -34.84C552.959 -33.0433 553.986 -30.4217 553.986 -26.975V-14.325H556.681V-8H552.171ZM540.896 -13.005C542.253 -13.005 543.408 -13.2983 544.361 -13.885C545.351 -14.4717 545.846 -15.425 545.846 -16.745V-20.155H541.886C538.696 -20.155 537.101 -19.0733 537.101 -16.91V-16.085C537.101 -15.0217 537.431 -14.2333 538.091 -13.72C538.751 -13.2433 539.686 -13.005 540.896 -13.005ZM562.145 -8V-36.875H570.285V-30.605H570.56C570.706 -31.4117 570.963 -32.1817 571.33 -32.915C571.696 -33.685 572.173 -34.3633 572.76 -34.95C573.383 -35.5367 574.116 -35.995 574.96 -36.325C575.803 -36.6917 576.793 -36.875 577.93 -36.875H579.36V-29.285H577.325C574.941 -29.285 573.163 -28.9733 571.99 -28.35C570.853 -27.7267 570.285 -26.5717 570.285 -24.885V-8H562.145ZM596.157 -7.34C593.957 -7.34 591.996 -7.68833 590.272 -8.385C588.549 -9.11833 587.082 -10.1267 585.872 -11.41C584.699 -12.73 583.801 -14.325 583.177 -16.195C582.591 -18.065 582.297 -20.155 582.297 -22.465C582.297 -24.7383 582.591 -26.7917 583.177 -28.625C583.764 -30.495 584.626 -32.09 585.762 -33.41C586.936 -34.73 588.366 -35.7383 590.052 -36.435C591.739 -37.1683 593.664 -37.535 595.827 -37.535C598.211 -37.535 600.246 -37.1317 601.932 -36.325C603.656 -35.5183 605.049 -34.4367 606.112 -33.08C607.212 -31.7233 608.001 -30.1467 608.477 -28.35C608.991 -26.59 609.247 -24.7383 609.247 -22.795V-20.375H590.712V-19.935C590.712 -18.0283 591.226 -16.5067 592.252 -15.37C593.279 -14.27 594.892 -13.72 597.092 -13.72C598.779 -13.72 600.154 -14.05 601.217 -14.71C602.281 -15.4067 603.271 -16.2317 604.187 -17.185L608.257 -12.125C606.974 -10.6217 605.287 -9.44833 603.197 -8.605C601.144 -7.76167 598.797 -7.34 596.157 -7.34ZM595.992 -31.54C594.342 -31.54 593.041 -30.99 592.087 -29.89C591.171 -28.8267 590.712 -27.3967 590.712 -25.6V-25.16H600.832V-25.655C600.832 -27.415 600.429 -28.8267 599.622 -29.89C598.852 -30.99 597.642 -31.54 595.992 -31.54ZM38.585 64.66C35.7983 64.66 33.4517 64.22 31.545 63.34C29.6383 62.4233 27.9333 61.14 26.43 59.49L31.215 54.65C32.2417 55.7867 33.3783 56.685 34.625 57.345C35.8717 58.005 37.2833 58.335 38.86 58.335C40.4733 58.335 41.5917 58.0967 42.215 57.62C42.8383 57.1067 43.15 56.4283 43.15 55.585C43.15 54.2283 42.1783 53.4217 40.235 53.165L37.1 52.78C30.61 51.9733 27.365 49.0033 27.365 43.87C27.365 42.4767 27.6217 41.2117 28.135 40.075C28.685 38.9017 29.4367 37.9117 30.39 37.105C31.38 36.2617 32.5533 35.62 33.91 35.18C35.3033 34.7033 36.8617 34.465 38.585 34.465C40.0883 34.465 41.4083 34.575 42.545 34.795C43.7183 34.9783 44.745 35.2717 45.625 35.675C46.5417 36.0417 47.3667 36.5183 48.1 37.105C48.87 37.655 49.6217 38.2783 50.355 38.975L45.68 43.76C44.7633 42.8433 43.7183 42.1283 42.545 41.615C41.4083 41.065 40.235 40.79 39.025 40.79C37.6317 40.79 36.6417 41.01 36.055 41.45C35.4683 41.89 35.175 42.4767 35.175 43.21C35.175 43.98 35.3767 44.585 35.78 45.025C36.22 45.4283 37.0267 45.7217 38.2 45.905L41.445 46.345C47.7883 47.1883 50.96 50.085 50.96 55.035C50.96 56.4283 50.6667 57.7117 50.08 58.885C49.4933 60.0583 48.65 61.085 47.55 61.965C46.4867 62.8083 45.185 63.4683 43.645 63.945C42.1417 64.4217 40.455 64.66 38.585 64.66ZM68.5548 64.66C66.3548 64.66 64.3932 64.3117 62.6698 63.615C60.9465 62.8817 59.4798 61.8733 58.2698 60.59C57.0965 59.27 56.1982 57.675 55.5748 55.805C54.9882 53.935 54.6948 51.845 54.6948 49.535C54.6948 47.2617 54.9882 45.2083 55.5748 43.375C56.1615 41.505 57.0232 39.91 58.1598 38.59C59.3332 37.27 60.7632 36.2617 62.4498 35.565C64.1365 34.8317 66.0615 34.465 68.2248 34.465C70.6082 34.465 72.6432 34.8683 74.3298 35.675C76.0532 36.4817 77.4465 37.5633 78.5098 38.92C79.6098 40.2767 80.3982 41.8533 80.8748 43.65C81.3882 45.41 81.6448 47.2617 81.6448 49.205V51.625H63.1098V52.065C63.1098 53.9717 63.6232 55.4933 64.6498 56.63C65.6765 57.73 67.2898 58.28 69.4898 58.28C71.1765 58.28 72.5515 57.95 73.6148 57.29C74.6782 56.5933 75.6682 55.7683 76.5848 54.815L80.6548 59.875C79.3715 61.3783 77.6848 62.5517 75.5948 63.395C73.5415 64.2383 71.1948 64.66 68.5548 64.66ZM68.3898 40.46C66.7398 40.46 65.4382 41.01 64.4848 42.11C63.5682 43.1733 63.1098 44.6033 63.1098 46.4V46.84H73.2298V46.345C73.2298 44.585 72.8265 43.1733 72.0198 42.11C71.2498 41.01 70.0398 40.46 68.3898 40.46ZM87.3936 64V35.125H95.5336V41.395H95.8086C95.9553 40.5883 96.212 39.8183 96.5786 39.085C96.9453 38.315 97.422 37.6367 98.0086 37.05C98.632 36.4633 99.3653 36.005 100.209 35.675C101.052 35.3083 102.042 35.125 103.179 35.125H104.609V42.715H102.574C100.19 42.715 98.412 43.0267 97.2386 43.65C96.102 44.2733 95.5336 45.4283 95.5336 47.115V64H87.3936ZM116.166 64L106.706 35.125H114.736L118.311 46.785L121.006 57.235H121.446L124.141 46.785L127.606 35.125H135.306L125.846 64H116.166ZM143.671 32.045C142.021 32.045 140.811 31.6783 140.041 30.945C139.307 30.175 138.941 29.2033 138.941 28.03V26.82C138.941 25.6467 139.307 24.6933 140.041 23.96C140.811 23.19 142.021 22.805 143.671 22.805C145.321 22.805 146.512 23.19 147.246 23.96C148.016 24.6933 148.401 25.6467 148.401 26.82V28.03C148.401 29.2033 148.016 30.175 147.246 30.945C146.512 31.6783 145.321 32.045 143.671 32.045ZM139.601 35.125H147.741V64H139.601V35.125ZM166.998 64.66C164.835 64.66 162.91 64.3117 161.223 63.615C159.536 62.8817 158.125 61.8733 156.988 60.59C155.851 59.27 154.99 57.675 154.403 55.805C153.816 53.935 153.523 51.845 153.523 49.535C153.523 47.225 153.816 45.1533 154.403 43.32C154.99 41.45 155.851 39.855 156.988 38.535C158.125 37.215 159.536 36.2067 161.223 35.51C162.91 34.8133 164.835 34.465 166.998 34.465C169.931 34.465 172.37 35.125 174.313 36.445C176.293 37.765 177.705 39.6167 178.548 42L171.948 44.86C171.691 43.76 171.16 42.825 170.353 42.055C169.546 41.285 168.428 40.9 166.998 40.9C165.348 40.9 164.101 41.45 163.258 42.55C162.415 43.6133 161.993 45.0617 161.993 46.895V52.285C161.993 54.1183 162.415 55.5667 163.258 56.63C164.101 57.6933 165.348 58.225 166.998 58.225C168.465 58.225 169.62 57.84 170.463 57.07C171.343 56.2633 171.985 55.2183 172.388 53.935L178.713 56.685C177.76 59.435 176.275 61.4517 174.258 62.735C172.278 64.0183 169.858 64.66 166.998 64.66ZM195.528 64.66C193.328 64.66 191.366 64.3117 189.643 63.615C187.919 62.8817 186.453 61.8733 185.243 60.59C184.069 59.27 183.171 57.675 182.548 55.805C181.961 53.935 181.668 51.845 181.668 49.535C181.668 47.2617 181.961 45.2083 182.548 43.375C183.134 41.505 183.996 39.91 185.133 38.59C186.306 37.27 187.736 36.2617 189.423 35.565C191.109 34.8317 193.034 34.465 195.198 34.465C197.581 34.465 199.616 34.8683 201.303 35.675C203.026 36.4817 204.419 37.5633 205.483 38.92C206.583 40.2767 207.371 41.8533 207.848 43.65C208.361 45.41 208.618 47.2617 208.618 49.205V51.625H190.083V52.065C190.083 53.9717 190.596 55.4933 191.623 56.63C192.649 57.73 194.263 58.28 196.463 58.28C198.149 58.28 199.524 57.95 200.588 57.29C201.651 56.5933 202.641 55.7683 203.558 54.815L207.628 59.875C206.344 61.3783 204.658 62.5517 202.568 63.395C200.514 64.2383 198.168 64.66 195.528 64.66ZM195.363 40.46C193.713 40.46 192.411 41.01 191.458 42.11C190.541 43.1733 190.083 44.6033 190.083 46.4V46.84H200.203V46.345C200.203 44.585 199.799 43.1733 198.993 42.11C198.223 41.01 197.013 40.46 195.363 40.46ZM468.676 32.045C467.026 32.045 465.816 31.6783 465.046 30.945C464.312 30.175 463.946 29.2033 463.946 28.03V26.82C463.946 25.6467 464.312 24.6933 465.046 23.96C465.816 23.19 467.026 22.805 468.676 22.805C470.326 22.805 471.517 23.19 472.251 23.96C473.021 24.6933 473.406 25.6467 473.406 26.82V28.03C473.406 29.2033 473.021 30.175 472.251 30.945C471.517 31.6783 470.326 32.045 468.676 32.045ZM464.606 35.125H472.746V64H464.606V35.125ZM480.343 64V35.125H488.483V40.02H488.813C489.326 38.5167 490.225 37.215 491.508 36.115C492.791 35.015 494.57 34.465 496.843 34.465C499.813 34.465 502.05 35.455 503.553 37.435C505.093 39.415 505.863 42.2383 505.863 45.905V64H497.723V46.565C497.723 44.695 497.43 43.32 496.843 42.44C496.256 41.5233 495.211 41.065 493.708 41.065C493.048 41.065 492.406 41.1567 491.783 41.34C491.16 41.4867 490.591 41.7433 490.078 42.11C489.601 42.4767 489.216 42.935 488.923 43.485C488.63 43.9983 488.483 44.6033 488.483 45.3V64H480.343ZM535.455 64L523.08 25.61H531.55L537.27 44.035L540.295 56.08H540.46L543.375 44.035L549.095 25.61H557.29L544.805 64H535.455ZM565.946 32.045C564.296 32.045 563.086 31.6783 562.316 30.945C561.583 30.175 561.216 29.2033 561.216 28.03V26.82C561.216 25.6467 561.583 24.6933 562.316 23.96C563.086 23.19 564.296 22.805 565.946 22.805C567.596 22.805 568.788 23.19 569.521 23.96C570.291 24.6933 570.676 25.6467 570.676 26.82V28.03C570.676 29.2033 570.291 30.175 569.521 30.945C568.788 31.6783 567.596 32.045 565.946 32.045ZM561.876 35.125H570.016V64H561.876V35.125ZM589.658 64.66C587.458 64.66 585.497 64.3117 583.773 63.615C582.05 62.8817 580.583 61.8733 579.373 60.59C578.2 59.27 577.302 57.675 576.678 55.805C576.092 53.935 575.798 51.845 575.798 49.535C575.798 47.2617 576.092 45.2083 576.678 43.375C577.265 41.505 578.127 39.91 579.263 38.59C580.437 37.27 581.867 36.2617 583.553 35.565C585.24 34.8317 587.165 34.465 589.328 34.465C591.712 34.465 593.747 34.8683 595.433 35.675C597.157 36.4817 598.55 37.5633 599.613 38.92C600.713 40.2767 601.502 41.8533 601.978 43.65C602.492 45.41 602.748 47.2617 602.748 49.205V51.625H584.213V52.065C584.213 53.9717 584.727 55.4933 585.753 56.63C586.78 57.73 588.393 58.28 590.593 58.28C592.28 58.28 593.655 57.95 594.718 57.29C595.782 56.5933 596.772 55.7683 597.688 54.815L601.758 59.875C600.475 61.3783 598.788 62.5517 596.698 63.395C594.645 64.2383 592.298 64.66 589.658 64.66ZM589.493 40.46C587.843 40.46 586.542 41.01 585.588 42.11C584.672 43.1733 584.213 44.6033 584.213 46.4V46.84H594.333V46.345C594.333 44.585 593.93 43.1733 593.123 42.11C592.353 41.01 591.143 40.46 589.493 40.46ZM618.617 64C615.794 64 613.649 63.285 612.182 61.855C610.752 60.425 610.037 58.335 610.037 55.585V41.45H605.967V35.125H608.002C609.102 35.125 609.854 34.8683 610.257 34.355C610.66 33.805 610.862 33.035 610.862 32.045V27.315H618.177V35.125H623.897V41.45H618.177V57.675H623.457V64H618.617ZM629.552 64V35.125H637.692V40.02H638.022C638.535 38.5167 639.434 37.215 640.717 36.115C642 35.015 643.779 34.465 646.052 34.465C649.022 34.465 651.259 35.455 652.762 37.435C654.302 39.415 655.072 42.2383 655.072 45.905V64H646.932V46.565C646.932 44.695 646.639 43.32 646.052 42.44C645.465 41.5233 644.42 41.065 642.917 41.065C642.257 41.065 641.615 41.1567 640.992 41.34C640.369 41.4867 639.8 41.7433 639.287 42.11C638.81 42.4767 638.425 42.935 638.132 43.485C637.839 43.9983 637.692 44.6033 637.692 45.3V64H629.552ZM683.656 64C682.189 64 680.961 63.5417 679.971 62.625C679.017 61.7083 678.412 60.48 678.156 58.94H677.826C677.386 60.81 676.414 62.24 674.911 63.23C673.407 64.1833 671.556 64.66 669.356 64.66C666.459 64.66 664.241 63.89 662.701 62.35C661.161 60.81 660.391 58.775 660.391 56.245C660.391 53.2017 661.491 50.9467 663.691 49.48C665.927 47.9767 668.952 47.225 672.766 47.225H677.331V45.41C677.331 44.0167 676.964 42.9167 676.231 42.11C675.497 41.2667 674.269 40.845 672.546 40.845C670.932 40.845 669.649 41.1933 668.696 41.89C667.742 42.5867 666.954 43.375 666.331 44.255L661.491 39.965C662.664 38.2417 664.131 36.9033 665.891 35.95C667.687 34.96 670.107 34.465 673.151 34.465C677.257 34.465 680.337 35.3633 682.391 37.16C684.444 38.9567 685.471 41.5783 685.471 45.025V57.675H688.166V64H683.656ZM672.381 58.995C673.737 58.995 674.892 58.7017 675.846 58.115C676.836 57.5283 677.331 56.575 677.331 55.255V51.845H673.371C670.181 51.845 668.586 52.9267 668.586 55.09V55.915C668.586 56.9783 668.916 57.7667 669.576 58.28C670.236 58.7567 671.171 58.995 672.381 58.995ZM693.629 64V35.125H701.769V40.02H702.099C702.612 38.48 703.492 37.1783 704.739 36.115C705.986 35.015 707.691 34.465 709.854 34.465C711.834 34.465 713.521 34.96 714.914 35.95C716.307 36.94 717.316 38.3883 717.939 40.295H718.104C718.361 39.4883 718.746 38.7367 719.259 38.04C719.809 37.3067 720.469 36.6833 721.239 36.17C722.009 35.6567 722.871 35.2533 723.824 34.96C724.777 34.63 725.804 34.465 726.904 34.465C729.691 34.465 731.817 35.455 733.284 37.435C734.787 39.415 735.539 42.2383 735.539 45.905V64H727.399V46.565C727.399 42.8983 726.079 41.065 723.439 41.065C722.229 41.065 721.129 41.4133 720.139 42.11C719.149 42.8067 718.654 43.87 718.654 45.3V64H710.514V46.565C710.514 42.8983 709.194 41.065 706.554 41.065C705.967 41.065 705.381 41.1567 704.794 41.34C704.244 41.4867 703.731 41.7433 703.254 42.11C702.814 42.4767 702.447 42.935 702.154 43.485C701.897 43.9983 701.769 44.6033 701.769 45.3V64H693.629Z" fill="#021526"/>
</g>
<path id="Vector 5" d="M1.6297 10.7655C34.3408 5.708 117.589 -2.46232 188.891 5.31648" stroke="#E86363" stroke-width="3" stroke-linecap="round"/>
</g>
<defs>
<clipPath id="clip0_0_1">
<rect width="1440" height="4360" fill="white" transform="translate(-95 -312)"/>
</clipPath>
</defs>
</svg>
